# xmcd
#
# Track frame offsets:
# 150
# 21122
# 40488
# 57590
# 75870
# 97143
# 116698
# 136484
# 153343
# 173775
# 193986
# 212657
# 229929
# 247475
# 264806
# 285946
# 303360
# 323400
#
# Disc length: 4607 seconds
#
#
# Revision: 0
# Processed by: cddbd v1.5.1PL0 Copyright (c) Steve Scherf et al.
# Submitted via: FreeRIP 2.80 
#
DISCID=fb11fd12
DTITLE=KRU - Relax
DYEAR=1900
DGENRE=
TTITLE0=Babe
TTITLE1=Di Hatimu
TTITLE2=Perpisahan Terasing
TTITLE3=Di Pintu Syurga
TTITLE4=Jangan Lafazkan
TTITLE5=Apa Saja
TTITLE6=Sayang
TTITLE7=Untukmu
TTITLE8=More Than Forever
TTITLE9=Seperti Yang Ku Jangka
TTITLE10=2
TTITLE11=Saat Ku Pejamkan Mata
TTITLE12=Balada Hati
TTITLE13=For You
TTITLE14=Penjunjung Namaku
TTITLE15=Getaran Jiwa
TTITLE16=Never Let The Spirit Die
TTITLE17=Janji Tinggal Janji
EXTD=
EXTT0=
EXTT1=
EXTT2=
EXTT3=
EXTT4=
EXTT5=
EXTT6=
EXTT7=
EXTT8=
EXTT9=
EXTT10=
EXTT11=
EXTT12=
EXTT13=
EXTT14=
EXTT15=
EXTT16=
EXTT17=
PLAYORDER=
